HIERARCHY
ROOT SpineBase
{
  OFFSET 0.000000 0.000000 0.000000
  CHANNELS 6 Xposition Yposition Zposition Zrotation Xrotation Yrotation
  JOINT SpineMid
  {
    OFFSET 0.000000 29.515286 0.000000
    CHANNELS 3 Zrotation Xrotation Yrotation
    JOINT SpineShoulder
    {
      OFFSET -0.144698 21.972795 -0.760717
      CHANNELS 3 Zrotation Xrotation Yrotation
      JOINT Neck
      {
        OFFSET -0.112654 7.300281 -0.529634
        CHANNELS 3 Zrotation Xrotation Yrotation
        JOINT Head
        {
          OFFSET 2.682619 9.852016 7.246691
          CHANNELS 3 Zrotation Xrotation Yrotation
          End Site
          {
            OFFSET 0 0 0
          }
        }
      }
      JOINT ShoulderLeft
      {
        OFFSET -4.621836 -6.196804 -5.809897
        CHANNELS 3 Zrotation Xrotation Yrotation
        JOINT ElbowLeft
        {
          OFFSET -5.677978 -18.869257 -0.343617
          CHANNELS 3 Zrotation Xrotation Yrotation
          JOINT WristLeft
          {
            OFFSET -4.166209 -11.123548 12.094746
            CHANNELS 3 Zrotation Xrotation Yrotation
            JOINT HandLeft
            {
              OFFSET -0.108121 0.491804 0.122536
              CHANNELS 3 Zrotation Xrotation Yrotation
              JOINT HandTipLeft
              {
                OFFSET -1.665128 -1.002715 -0.163475
                CHANNELS 3 Zrotation Xrotation Yrotation
                End Site
                {
                  OFFSET 0 0 0
                }
              }
              JOINT ThumbLeft
              {
                OFFSET -1.443385 -1.493978 -4.000727
                CHANNELS 3 Zrotation Xrotation Yrotation
                End Site
                {
                  OFFSET 0 0 0
                }
              }
            }
          }
        }
      }
      JOINT ShoulderRight
      {
        OFFSET 5.779831 4.400047 -3.757804
        CHANNELS 3 Zrotation Xrotation Yrotation
        JOINT ElbowRight
        {
          OFFSET -10.356245 -21.436265 -6.652328
          CHANNELS 3 Zrotation Xrotation Yrotation
          JOINT WristRight
          {
            OFFSET -9.018413 -21.093275 6.431465
            CHANNELS 3 Zrotation Xrotation Yrotation
            JOINT HandRight
            {
              OFFSET 2.346661 -8.164308 -2.015683
              CHANNELS 3 Zrotation Xrotation Yrotation
              JOINT HandTipRight
              {
                OFFSET -0.350839 -3.201635 -0.683069
                CHANNELS 3 Zrotation Xrotation Yrotation
                End Site
                {
                  OFFSET 0 0 0
                }
              }
              JOINT ThumbRight
              {
                OFFSET -1.147378 -0.183129 -0.308457
                CHANNELS 3 Zrotation Xrotation Yrotation
                End Site
                {
                  OFFSET 0 0 0
                }
              }
            }
          }
        }
      }
    }
  }
  JOINT HipLeft
  {
    OFFSET -5.074388 0.554984 -4.248427
    CHANNELS 3 Zrotation Xrotation Yrotation
    JOINT KneeLeft
    {
      OFFSET 10.434611 -25.608587 2.797297
      CHANNELS 3 Zrotation Xrotation Yrotation
      JOINT AnkleLeft
      {
        OFFSET 8.728059 -25.772747 3.561073
        CHANNELS 3 Zrotation Xrotation Yrotation
        JOINT FootLeft
        {
          OFFSET -3.863244 -8.227073 -6.727114
          CHANNELS 3 Zrotation Xrotation Yrotation
          End Site
          {
            OFFSET 0 0 0
          }
        }
      }
    }
  }
  JOINT HipRight
  {
    OFFSET 3.313152 1.889210 -2.126003
    CHANNELS 3 Zrotation Xrotation Yrotation
    JOINT KneeRight
    {
      OFFSET -3.876759 -26.002168 -2.675002
      CHANNELS 3 Zrotation Xrotation Yrotation
      JOINT AnkleRight
      {
        OFFSET 8.151249 -34.136792 -1.234366
        CHANNELS 3 Zrotation Xrotation Yrotation
        JOINT FootRight
        {
          OFFSET 0.428122 -2.480953 -11.996765
          CHANNELS 3 Zrotation Xrotation Yrotation
          End Site
          {
            OFFSET 0 0 0
          }
        }
      }
    }
  }
}
MOTION
Frames: 6
Frame Time: 0.033333
76.811021 73.123437 296.146225 -5.573163 -2.794637 -16.290462 0.521264 0.657768 15.973965 0.798745 0.309372 -0.148076 7.358984 3.038023 -2.581558 0.000000 0.000000 0.000000 -0.470823 -3.142870 1.827031 8.802229 -14.272988 9.043541 171.522050 63.388797 -154.763438 103.574472 -11.345202 101.578472 0.000000 0.000000 0.000000 0.000000 0.000000 0.000000 0.395627 -9.875282 7.031294 5.186236 -0.090422 -2.362988 -15.604014 -79.508474 -60.875599 -111.190058 -26.223877 105.296270 0.000000 0.000000 0.000000 0.000000 0.000000 0.000000 9.127742 6.447228 16.454733 -12.931430 10.960981 2.748898 24.722193 20.974559 -28.272841 0.000000 0.000000 0.000000 12.766112 6.811809 14.261898 -9.372955 -2.512069 0.415789 1.128933 1.710724 -0.969533 0.000000 0.000000 0.000000
76.701580 73.665884 296.288673 -5.603387 -3.018629 -16.173492 0.404329 0.619559 15.841198 0.781114 0.362938 -0.155081 7.427397 3.023769 -2.451623 0.000000 0.000000 0.000000 -0.611284 -2.940140 1.841110 9.817244 -13.928695 9.649033 163.434235 65.493620 -147.246752 105.113631 -40.270252 98.401956 0.000000 0.000000 0.000000 0.000000 0.000000 0.000000 0.291962 -9.648405 7.083461 5.474483 -0.379840 -2.344547 -7.045088 -79.376820 -54.286391 -107.533027 -51.672275 106.330676 0.000000 0.000000 0.000000 0.000000 0.000000 0.000000 8.903060 7.075459 16.483964 -8.738261 7.363595 1.484823 14.599404 16.791179 -20.764176 0.000000 0.000000 0.000000 13.014498 7.163523 14.013568 -9.647904 -2.673463 0.434260 1.105023 2.211310 -0.825771 0.000000 0.000000 0.000000
76.892067 73.604604 296.338253 -5.269938 -3.074869 -16.016308 0.224160 0.501279 15.696027 0.646757 0.332193 -0.160334 7.317079 3.131438 -2.357641 0.000000 0.000000 0.000000 -0.527395 -2.328113 1.731264 9.521747 -12.630194 9.063092 164.996560 67.604106 -149.134439 105.619919 -38.309151 94.432791 0.000000 0.000000 0.000000 0.000000 0.000000 0.000000 0.240235 -8.560516 6.656117 5.387953 -0.566738 -2.153599 -0.950475 -72.397803 -42.807770 -75.469617 -44.728770 103.865706 0.000000 0.000000 0.000000 0.000000 0.000000 0.000000 8.210358 7.052991 16.404323 -5.233270 5.385223 1.087770 6.467323 11.338289 -14.071506 0.000000 0.000000 0.000000 12.244022 7.129630 13.950615 -9.277965 -2.640711 0.444053 1.042890 -0.194368 -0.709442 0.000000 0.000000 0.000000
76.920571 73.563159 296.298028 -5.246372 -3.018814 -16.092194 0.266254 0.470008 15.774335 0.583470 0.269312 -0.164429 7.170538 2.705143 -2.103566 0.000000 0.000000 0.000000 -0.209629 -1.900829 1.632022 9.508749 -13.116989 9.563333 157.776638 72.217762 -143.667122 103.300931 -22.375054 86.404172 0.000000 0.000000 0.000000 0.000000 0.000000 0.000000 0.055879 -8.367725 6.634970 5.560758 -0.732694 -2.141462 -0.653552 -71.529075 -41.964563 -71.579510 -41.632683 101.821597 0.000000 0.000000 0.000000 0.000000 0.000000 0.000000 7.941107 6.885792 16.471058 -0.789313 2.295874 0.606813 -2.390036 5.978286 -6.760424 0.000000 0.000000 0.000000 12.251092 7.027258 14.049885 -9.309244 -2.517038 0.455694 1.001000 -0.143297 -0.368486 0.000000 0.000000 0.000000
76.941404 73.591761 296.282808 -5.203414 -3.001392 -17.392844 0.222612 0.405134 17.075287 0.523875 0.223817 -0.170533 7.075333 2.004880 -1.750946 0.000000 0.000000 0.000000 0.488702 -1.368488 1.509980 8.924396 -14.197391 9.994606 137.414241 76.707478 -124.715723 104.563564 -17.111193 67.217119 0.000000 0.000000 0.000000 0.000000 0.000000 0.000000 0.011128 -8.223963 6.642543 5.667157 -0.805767 -2.149763 -7.703683 -72.826580 -47.414512 -101.319103 34.127257 95.773445 0.000000 0.000000 0.000000 0.000000 0.000000 0.000000 7.496622 6.763145 17.699277 3.746079 -0.892471 0.349564 -9.869432 1.144921 -0.052097 0.000000 0.000000 0.000000 12.030738 7.421489 15.307436 -9.344813 -2.619946 0.478968 0.950266 -0.066454 0.011424 0.000000 0.000000 0.000000
76.953557 73.651426 296.285105 -5.186446 -3.016560 -18.268908 0.188827 0.372559 17.950046 0.490931 0.195656 -0.174861 6.904962 1.109875 -1.298243 0.000000 0.000000 0.000000 0.621753 -1.000302 1.434213 8.962176 -14.935763 10.359935 73.157618 78.634545 -63.848755 116.120165 -14.787211 25.737383 0.000000 0.000000 0.000000 0.000000 0.000000 0.000000 0.098613 -8.156025 6.641609 5.649352 -0.859502 -2.108832 -8.163600 -71.843116 -46.884162 -91.343277 58.338633 86.606531 0.000000 0.000000 0.000000 0.000000 0.000000 0.000000 7.075622 6.662650 18.522885 7.444988 -3.217004 0.362573 -14.885614 -2.753751 4.885975 0.000000 0.000000 0.000000 11.860612 7.785891 16.134450 -9.388164 -2.728994 0.509000 0.924323 -0.040045 0.301928 0.000000 0.000000 0.000000
